<svg width="16" height="17" viewBox="0 0 16 17" fill="none" xmlns="http://www.w3.org/2000/svg">
<path d="M0 14.1926C0 15.6012 1.04 16.6784 2.4 16.6784H13.6C14.96 16.6784 16 15.6012 16 14.1926V7.56408H0V14.1926ZM13.6 1.76408H12V0.935505C12 0.438362 11.68 0.106934 11.2 0.106934C10.72 0.106934 10.4 0.438362 10.4 0.935505V1.76408H5.6V0.935505C5.6 0.438362 5.28 0.106934 4.8 0.106934C4.32 0.106934 4 0.438362 4 0.935505V1.76408H2.4C1.04 1.76408 0 2.84122 0 4.24979V5.90693H16V4.24979C16 2.84122 14.96 1.76408 13.6 1.76408Z" fill="black"/>
</svg>
