<svg width="19" height="20" viewBox="0 0 19 20" fill="none" xmlns="http://www.w3.org/2000/svg">
<path d="M16.4908 0.898926H1.83333C0.825 0.898926 0 1.75339 0 2.79774V19.887L3.6575 16.0894H16.4908C17.4992 16.0894 18.3242 15.2349 18.3242 14.1906V2.79774C18.3242 1.75339 17.4992 0.898926 16.4908 0.898926ZM10.0742 12.2918H8.24083V10.393H10.0742V12.2918ZM10.0742 7.54476C10.0742 8.06693 9.66167 8.49416 9.1575 8.49416C8.65333 8.49416 8.24083 8.06693 8.24083 7.54476V5.64595C8.24083 5.12378 8.65333 4.69655 9.1575 4.69655C9.66167 4.69655 10.0742 5.12378 10.0742 5.64595V7.54476Z" fill="black"/>
</svg>
