<svg width="16" height="20" viewBox="0 0 16 20" fill="none" xmlns="http://www.w3.org/2000/svg">
<path d="M2.49984 19.887H13.4998C13.663 19.887 13.8188 19.8585 13.9692 19.8168L10.5234 16.248C9.77597 16.7636 8.89794 17.0388 7.99984 17.0388C5.47259 17.0388 3.4165 14.9093 3.4165 12.2918C3.4165 9.67427 5.47259 7.54476 7.99984 7.54476C10.5271 7.54476 12.5832 9.67427 12.5832 12.2918C12.5833 13.222 12.3176 14.1314 11.8196 14.9055L15.2653 18.4743C15.3057 18.3186 15.3332 18.1572 15.3332 17.9882V6.59536L9.83317 0.898926H2.49984C2.01361 0.898926 1.54729 1.09898 1.20347 1.45507C0.859658 1.81117 0.666504 2.29414 0.666504 2.79774V17.9882C0.666504 18.4918 0.859658 18.9748 1.20347 19.3309C1.54729 19.687 2.01361 19.887 2.49984 19.887Z" fill="black"/>
</svg>
