<svg width="18" height="19" viewBox="0 0 18 19" fill="none" xmlns="http://www.w3.org/2000/svg">
<path d="M17.8708 7.68417C17.8708 7.72215 17.88 7.75063 17.8983 7.76962C17.9167 7.78861 17.9167 7.81709 17.8983 7.85507V8.42471C17.8983 8.61459 17.834 8.77599 17.7053 8.90891C17.5766 9.04182 17.4203 9.10828 17.2365 9.10828H15.9679V18.3365C15.9679 18.5264 15.9127 18.6783 15.8024 18.7922C15.6921 18.9061 15.5358 18.9726 15.3336 18.9916H2.56479C2.38093 18.9916 2.22465 18.9251 2.09595 18.7922C1.96726 18.6593 1.90291 18.5074 1.90291 18.3365V9.10828H0.634302C0.450446 9.10828 0.303362 9.04182 0.193048 8.90891C0.082735 8.77599 0.0183856 8.61459 0 8.42471V7.85507C0 7.77911 0.00919278 7.72215 0.0275783 7.68417L1.6547 1.50355C1.74663 1.19974 1.90291 0.962388 2.12353 0.791496C2.34416 0.620603 2.60156 0.535156 2.89573 0.535156H15.0026C15.2968 0.535156 15.5542 0.620603 15.7748 0.791496C15.9954 0.962388 16.1425 1.19974 16.2161 1.50355L17.8708 7.68417ZM14.065 9.10828H3.83339V12.7255C3.83339 12.8205 3.87016 12.8964 3.9437 12.9534C4.01725 13.0103 4.09079 13.0483 4.16433 13.0673H13.734C13.8259 13.0673 13.9087 13.0293 13.9822 12.9534C14.0558 12.8774 14.0833 12.8015 14.065 12.7255V9.10828Z" fill="black"/>
</svg>
