<svg width="12" height="12" viewBox="0 0 12 12" fill="none" xmlns="http://www.w3.org/2000/svg">
<path d="M11.3846 8.6771V10.2983C11.3852 10.4488 11.3543 10.5978 11.2939 10.7357C11.2335 10.8736 11.1449 10.9974 11.0338 11.0991C10.9227 11.2008 10.7915 11.2783 10.6486 11.3265C10.5058 11.3747 10.3544 11.3926 10.2042 11.3791C8.538 11.1984 6.93749 10.6302 5.53129 9.72007C4.22299 8.89037 3.11379 7.78337 2.28244 6.47766C1.36734 5.06787 0.797853 3.46276 0.620118 1.79238C0.606586 1.64295 0.624382 1.49233 0.67237 1.35013C0.720358 1.20793 0.797489 1.07727 0.89885 0.966447C1.00021 0.855628 1.12358 0.767087 1.26111 0.70646C1.39864 0.645834 1.54731 0.614452 1.69765 0.61431H3.32207C3.58485 0.611729 3.83961 0.7046 4.03885 0.875612C4.2381 1.04662 4.36824 1.28411 4.40502 1.5438C4.47358 2.06262 4.60074 2.57204 4.78405 3.06233C4.8569 3.25575 4.87267 3.46596 4.82949 3.66805C4.7863 3.87014 4.68597 4.05564 4.54039 4.20257L3.85272 4.88888C4.62354 6.2418 5.74596 7.362 7.10156 8.13129L7.78923 7.44498C7.93645 7.29969 8.12232 7.19956 8.32481 7.15646C8.52731 7.11336 8.73794 7.12909 8.93174 7.2018C9.42301 7.38475 9.93343 7.51165 10.4533 7.58008C10.7163 7.61712 10.9565 7.74934 11.1282 7.9516C11.3 8.15387 11.3912 8.41207 11.3846 8.6771Z" stroke="#E0E0E0" stroke-linecap="round" stroke-linejoin="round"/>
</svg>
