<svg width="20" height="20" viewBox="0 0 20 20" fill="none" xmlns="http://www.w3.org/2000/svg">
<path d="M10.0002 0.898926C4.94016 0.898926 0.833496 5.15226 0.833496 10.393C0.833496 15.6337 4.94016 19.887 10.0002 19.887C15.0602 19.887 19.1668 15.6337 19.1668 10.393C19.1668 5.15226 15.0602 0.898926 10.0002 0.898926ZM10.0002 3.74714C11.5218 3.74714 12.7502 5.01934 12.7502 6.59536C12.7502 8.17137 11.5218 9.44357 10.0002 9.44357C8.4785 9.44357 7.25016 8.17137 7.25016 6.59536C7.25016 5.01934 8.4785 3.74714 10.0002 3.74714ZM10.0002 17.2287C8.91103 17.2287 7.83883 16.9495 6.87917 16.4161C5.9195 15.8827 5.10221 15.1116 4.50016 14.1716C4.52766 12.2823 8.16683 11.2474 10.0002 11.2474C11.8243 11.2474 15.4727 12.2823 15.5002 14.1716C14.8981 15.1116 14.0808 15.8827 13.1212 16.4161C12.1615 16.9495 11.0893 17.2287 10.0002 17.2287Z" fill="black"/>
</svg>
